# xmcd
#
# Track frame offsets: 
#        150
#        18825
#        35997
#        53682
#        68860
#        95377
#        106697
#        126100
#        147660
#        162577
#        186792
#
# Disc length: 2722 seconds
#
# Revision: 0
# Processed by: cddbd v1.5.1PL2 Copyright (c) Steve Scherf et al.
# Submitted via: ExactAudioCopy v0.95b4
#
DISCID=980aa00b
DTITLE=The Wonderful World - Firestorm Red
DYEAR=1993
DGENRE=Rock and Roll
TTITLE0=Tad's Song
TTITLE1=After the Dolphin
TTITLE2=Orange Marmelade
TTITLE3=Blues for Gavrilo Princip
TTITLE4=How Much Longer
TTITLE5=Balkan Lullaby
TTITLE6=Hack
TTITLE7=Sad Song
TTITLE8=Pig Alley
TTITLE9=Firestorm Red
TTITLE10=View From My Pillow
EXTD=Recorded at Ambience Studio, Oslo December 1992\nEngineered and p
EXTD=roduced by Erling Jørgensen\nSad Song recorded at Endless Sound S
EXTD=tudio, Oslo February 1992\nEngineered and produced by Nils Arne Ø
EXTD=degård
EXTT0=
EXTT1=
EXTT2=
EXTT3=
EXTT4=
EXTT5=
EXTT6=
EXTT7=
EXTT8=
EXTT9=
EXTT10=
PLAYORDER=
